<?xml version="1.0" standalone="no"?>
<!DOCTYPE svg PUBLIC "-//W3C//DTD SVG 20010904//EN"
 "http://www.w3.org/TR/2001/REC-SVG-20010904/DTD/svg10.dtd">
<svg version="1.0" xmlns="http://www.w3.org/2000/svg"
 width="553.000000pt" height="352.000000pt" viewBox="0 0 553.000000 352.000000"
 preserveAspectRatio="xMidYMid meet">

<g transform="translate(0.000000,352.000000) scale(0.100000,-0.100000)"
fill="#000000" stroke="none">
<path d="M0 1760 l0 -1760 2765 0 2765 0 0 1760 0 1760 -2765 0 -2765 0 0
-1760z m2781 1160 c213 -20 391 -85 584 -214 76 -50 343 -311 400 -391 185
-257 264 -544 235 -854 -14 -155 -48 -281 -111 -411 -73 -151 -131 -232 -244
-343 -115 -114 -189 -166 -335 -236 -300 -145 -682 -156 -990 -29 -190 78
-294 154 -495 360 -163 167 -227 258 -295 415 -121 285 -127 638 -16 922 170
431 568 737 1016 780 123 12 134 12 251 1z"/>
<path d="M2555 2889 c-343 -26 -683 -224 -874 -509 -135 -202 -194 -366 -210
-582 -18 -255 35 -500 150 -694 56 -92 66 -101 34 -30 -121 274 -140 612 -49
885 126 380 413 667 795 795 111 37 236 56 373 56 189 0 348 -33 509 -104 31
-14 57 -23 57 -22 0 7 -138 86 -190 109 -180 80 -382 112 -595 96z"/>
<path d="M2655 2630 c-103 -16 -197 -42 -280 -77 -67 -28 -92 -33 -156 -33
-62 0 -82 -4 -110 -23 -40 -26 -69 -79 -69 -125 0 -26 -14 -50 -64 -112 -145
-178 -216 -343 -247 -575 -24 -182 13 -380 105 -570 49 -100 62 -119 141 -193
56 -53 85 -87 82 -97 -4 -9 20 -34 73 -74 220 -166 419 -228 695 -218 111 4
159 10 230 31 363 106 630 373 741 741 26 83 28 104 28 270 1 166 -1 187 -26
277 -15 53 -41 127 -58 164 -34 75 -148 250 -182 280 -17 15 -16 12 5 -17 41
-55 114 -216 137 -304 73 -280 31 -577 -116 -828 -109 -187 -297 -349 -505
-438 -271 -115 -603 -111 -852 10 -76 38 -79 40 -42 37 22 -2 77 -18 121 -34
123 -46 222 -63 359 -63 216 1 389 53 566 170 218 144 370 352 434 593 95 356
6 716 -241 978 -58 62 -84 79 -179 126 -141 69 -273 103 -420 109 -60 2 -137
0 -170 -5z m355 -273 c166 -64 238 -195 247 -452 18 -474 -181 -643 -656 -555
-30 5 -58 10 -63 10 -4 0 -8 -103 -8 -230 l0 -230 -175 0 -175 0 0 741 0 740
393 -3 c343 -3 398 -6 437 -21z"/>
<path d="M2530 1855 l0 -215 140 0 c158 0 188 9 217 63 26 48 26 247 -1 300
-29 59 -54 67 -216 67 l-140 0 0 -215z"/>
</g>
</svg>
